<svg xmlns="http://www.w3.org/2000/svg" width="1280" height="720" viewBox="0 0 1280 720" role="img" aria-labelledby="title desc">
  <title id="title">Bệnh viện cơ xương khớp</title>
  <desc id="desc">Ảnh minh họa cơ sở y tế cho chuyên khoa cơ xương khớp.</desc>
  <rect width="1280" height="720" fill="#eef5e9"/>
  <rect x="0" y="492" width="1280" height="228" fill="#dce8d8"/>
  <rect x="178" y="188" width="610" height="382" rx="28" fill="#ffffff" stroke="#1b2d22" stroke-width="10"/>
  <rect x="236" y="256" width="112" height="112" rx="18" fill="#d8f3bd"/>
  <rect x="412" y="256" width="112" height="112" rx="18" fill="#d8f3bd"/>
  <rect x="588" y="256" width="112" height="112" rx="18" fill="#d8f3bd"/>
  <rect x="236" y="416" width="112" height="112" rx="18" fill="#d8f3bd"/>
  <rect x="412" y="416" width="112" height="154" rx="18" fill="#edf6e8"/>
  <rect x="588" y="416" width="112" height="112" rx="18" fill="#d8f3bd"/>
  <rect x="898" y="228" width="166" height="292" rx="38" fill="#087f8c"/>
  <rect x="962" y="162" width="38" height="424" rx="19" fill="#087f8c"/>
  <circle cx="981" cy="375" r="110" fill="#ffffff" stroke="#1b2d22" stroke-width="10"/>
  <path d="M934 375h94M981 328v94" stroke="#087f8c" stroke-width="34" stroke-linecap="round"/>
  <path d="M172 592h936" stroke="#1b2d22" stroke-width="12" stroke-linecap="round"/>
  <text x="236" y="152" fill="#1b2d22" font-family="Arial, sans-serif" font-size="42" font-weight="700">MediMate Care</text>
</svg>
