<svg xmlns="http://www.w3.org/2000/svg" width="1280" height="720" viewBox="0 0 1280 720" role="img" aria-labelledby="title desc">
  <title id="title">Bệnh viện hô hấp</title>
  <desc id="desc">Ảnh minh họa cơ sở y tế cho chuyên khoa hô hấp.</desc>
  <rect width="1280" height="720" fill="#e4f4f2"/>
  <rect x="0" y="506" width="1280" height="214" fill="#d8e8ea"/>
  <rect x="188" y="214" width="562" height="352" rx="30" fill="#ffffff" stroke="#12353a" stroke-width="10"/>
  <rect x="254" y="282" width="96" height="96" rx="18" fill="#b9e4e7"/>
  <rect x="414" y="282" width="96" height="96" rx="18" fill="#b9e4e7"/>
  <rect x="574" y="282" width="96" height="96" rx="18" fill="#b9e4e7"/>
  <rect x="254" y="428" width="96" height="96" rx="18" fill="#b9e4e7"/>
  <rect x="414" y="418" width="96" height="148" rx="18" fill="#edf9f8"/>
  <rect x="574" y="428" width="96" height="96" rx="18" fill="#b9e4e7"/>
  <circle cx="952" cy="366" r="154" fill="#ffffff" stroke="#12353a" stroke-width="10"/>
  <path d="M952 254v206" stroke="#087f8c" stroke-width="18" stroke-linecap="round"/>
  <path d="M944 338c-68-60-126-22-126 50 0 62 52 94 104 68 36-18 22-80 22-118Z" fill="#b8ef79" stroke="#12353a" stroke-width="8"/>
  <path d="M960 338c68-60 126-22 126 50 0 62-52 94-104 68-36-18-22-80-22-118Z" fill="#b8ef79" stroke="#12353a" stroke-width="8"/>
  <path d="M170 590h940" stroke="#12353a" stroke-width="12" stroke-linecap="round"/>
  <text x="250" y="172" fill="#12353a" font-family="Arial, sans-serif" font-size="42" font-weight="700">Respiratory Center</text>
</svg>
